<svg width="17" height="17" xmlns="http://www.w3.org/2000/svg" xmlns:xlink="http://www.w3.org/1999/xlink" xml:space="preserve" overflow="hidden"><g transform="translate(-664 -355)"><path d="M677.07 367.84 676.567 369.781C676.339 370.602 674.87 371.432 672.5 371.432 670.173 371.432 668.689 370.596 668.433 369.783L667.936 367.865C668.993 368.709 670.653 369.209 672.5 369.209 674.259 369.209 676.001 368.669 677.07 367.84Z" fill="#FFC107"/><path d="M677.775 365.123 677.36 366.723 677.235 366.885C676.453 367.902 674.461 368.641 672.5 368.641 670.44 368.641 668.581 367.956 667.763 366.893L667.643 366.734 667.226 365.123C668.442 365.83 670.514 366.464 672.492 366.416 672.565 366.419 672.636 366.419 672.708 366.419 674.634 366.419 676.601 365.805 677.775 365.123Z" fill="#FFC107"/><path d="M676.612 363.395C676.524 363.42 676.433 363.403 676.359 363.352 676.288 363.298 676.246 363.213 676.246 363.122 676.246 361.411 675.51 359.908 674.668 359.908 673.648 359.908 672.784 361.624 672.784 363.656 672.784 363.813 672.656 363.94 672.5 363.94 669.908 363.94 667.703 363.378 666.552 362.531L667.01 364.296 667.089 364.355C668.098 365.12 670.337 365.901 672.492 365.847 674.654 365.898 676.899 365.12 677.908 364.355L677.988 364.296 678.442 362.545C677.993 362.875 677.377 363.165 676.612 363.395ZM675.41 363.602C674.981 363.801 674.16 363.895 673.739 363.895 673.583 363.895 673.455 363.767 673.455 363.611 673.455 361.909 673.91 360.891 674.668 360.891 675.467 360.891 675.575 362.13 675.575 363.344 675.575 363.455 675.51 363.557 675.41 363.602Z" fill="#FFC107"/><path d="M669.709 356.549C668.948 356.549 668.496 357.867 668.496 359.141 668.496 359.229 668.536 359.311 668.607 359.365 668.655 359.402 668.718 359.425 668.78 359.425 668.803 359.425 668.828 359.419 668.851 359.413 669.32 359.288 669.832 359.189 670.366 359.118 670.508 359.098 670.613 358.979 670.613 358.837 670.613 357.319 670.309 356.549 669.709 356.549ZM669.076 358.774C669.15 357.785 669.505 357.117 669.709 357.117 669.792 357.117 670.013 357.475 670.042 358.589 669.709 358.64 669.385 358.703 669.076 358.774Z"/><path d="M679.295 361.175C679.295 360.152 678.084 359.28 675.973 358.785 674.745 358.495 673.284 358.37 671.846 358.422 671.77 356.483 670.857 355 669.709 355 668.07 355 667.297 357.268 667.257 359.442 666.211 359.942 665.705 360.51 665.705 361.175 665.705 361.246 665.7 361.499 665.714 361.556L667.888 369.942C668.271 371.153 670.167 372 672.5 372 674.919 372 676.774 371.17 677.115 369.928L679.284 361.556C679.301 361.499 679.295 361.246 679.295 361.175ZM676.567 369.781C676.339 370.602 674.87 371.432 672.5 371.432 670.173 371.432 668.689 370.596 668.433 369.783L667.936 367.865C668.993 368.709 670.653 369.209 672.5 369.209 674.259 369.209 676.001 368.669 677.07 367.84L676.567 369.781ZM677.36 366.723 677.235 366.885C676.453 367.902 674.461 368.641 672.5 368.641 670.44 368.641 668.581 367.956 667.763 366.893L667.643 366.734 667.226 365.123C668.442 365.83 670.514 366.464 672.492 366.416 672.565 366.419 672.636 366.419 672.708 366.419 674.634 366.419 676.601 365.805 677.775 365.123L677.36 366.723ZM677.988 364.296 677.908 364.355C676.899 365.12 674.654 365.898 672.492 365.847 670.337 365.901 668.098 365.12 667.089 364.355L667.01 364.296 666.552 362.531C667.703 363.378 669.908 363.94 672.5 363.94 672.656 363.94 672.784 363.813 672.784 363.656 672.784 361.624 673.648 359.908 674.668 359.908 675.51 359.908 676.246 361.411 676.246 363.122 676.246 363.213 676.288 363.298 676.359 363.352 676.433 363.403 676.524 363.42 676.612 363.395 677.377 363.165 677.993 362.875 678.442 362.545L677.988 364.296ZM676.803 362.736C676.692 360.832 675.777 359.34 674.668 359.34 673.347 359.34 672.301 361.087 672.219 363.369 668.701 363.312 666.274 362.187 666.274 361.175 666.274 360.729 666.737 360.294 667.655 359.885 667.757 359.84 667.822 359.737 667.822 359.624 667.822 357.66 668.485 355.568 669.709 355.568 670.562 355.568 671.284 357.001 671.284 358.694L671.284 358.72C671.284 358.797 671.318 358.873 671.375 358.927 671.432 358.979 671.508 359.007 671.585 359.004 671.886 358.987 672.193 358.979 672.5 358.979 673.685 358.979 674.842 359.104 675.845 359.34 677.596 359.749 678.727 360.471 678.727 361.175 678.727 361.732 677.999 362.318 676.803 362.736Z"/><path d="M675.845 359.34C674.842 359.104 673.685 358.979 672.5 358.979 672.193 358.979 671.886 358.987 671.585 359.004 671.508 359.007 671.432 358.979 671.375 358.927 671.318 358.873 671.284 358.797 671.284 358.72L671.284 358.694C671.284 357.001 670.562 355.568 669.709 355.568 668.485 355.568 667.822 357.66 667.822 359.624 667.822 359.737 667.757 359.84 667.655 359.885 666.737 360.294 666.274 360.729 666.274 361.175 666.274 362.187 668.701 363.312 672.219 363.369 672.301 361.087 673.347 359.34 674.668 359.34 675.777 359.34 676.692 360.832 676.803 362.736 677.999 362.318 678.727 361.732 678.727 361.175 678.727 360.471 677.596 359.749 675.845 359.34ZM670.366 359.118C669.832 359.189 669.32 359.288 668.851 359.413 668.828 359.419 668.803 359.425 668.78 359.425 668.718 359.425 668.655 359.402 668.607 359.365 668.536 359.311 668.496 359.229 668.496 359.141 668.496 357.867 668.948 356.549 669.709 356.549 670.309 356.549 670.613 357.319 670.613 358.836 670.613 358.979 670.508 359.098 670.366 359.118Z" fill="#F9A825"/><path d="M674.668 360.891C673.91 360.891 673.455 361.909 673.455 363.611 673.455 363.767 673.583 363.895 673.739 363.895 674.16 363.895 674.981 363.801 675.41 363.602 675.51 363.557 675.575 363.454 675.575 363.344 675.575 362.13 675.467 360.891 674.668 360.891ZM674.029 363.312C674.069 362.238 674.333 361.46 674.668 361.46 674.674 361.46 674.981 361.479 675.004 363.15 674.737 363.233 674.344 363.29 674.029 363.312Z"/><path d="M675.004 363.15C674.737 363.233 674.344 363.29 674.029 363.312 674.069 362.238 674.333 361.46 674.668 361.46 674.674 361.46 674.981 361.479 675.004 363.15Z" fill="#F9A825"/><path d="M676.582 368.168 676.164 369.781C675.943 370.578 674.55 371.38 672.301 371.427 672.367 371.428 672.432 371.432 672.5 371.432 674.87 371.432 676.339 370.602 676.567 369.781L677.07 367.84C676.921 367.955 676.756 368.064 676.582 368.168Z" fill="#F9A825"/><path d="M677.314 365.367 676.857 367.277C677.002 367.152 677.13 367.021 677.235 366.885L677.36 366.723 677.775 365.123C677.632 365.205 677.478 365.287 677.314 365.367Z" fill="#F9A825"/><path d="M672.442 366.416C672.352 366.418 672.26 366.418 672.169 366.417 672.214 366.418 672.26 366.419 672.305 366.419 672.351 366.419 672.397 366.417 672.442 366.416Z" fill="#FFC107"/><path d="M677.959 362.845 677.473 364.642C677.635 364.548 677.782 364.451 677.908 364.355L677.988 364.296 678.442 362.545C678.3 362.65 678.134 362.749 677.959 362.845Z" fill="#F9A825"/><path d="M672.089 365.847C672.084 365.847 672.08 365.847 672.075 365.847 672.199 365.85 672.322 365.85 672.446 365.847 672.327 365.849 672.208 365.85 672.089 365.847Z" fill="#FFC107"/></g></svg>